<?xml version="1.0" encoding="UTF-8"?>
<svg version="1.1" viewBox="0 0 77.051 22.358" xmlns="http://www.w3.org/2000/svg">
<g transform="translate(21.769 8.2411)">
<path d="m0.9495 1.638h1.8855v1.566h0.4095v-3.15h-0.4095v1.377h-1.8855v-1.377h-0.4095v3.15h0.4095v-1.566m3.3705-1.584v3.15h2.034v-0.2475h-1.6245v-1.3185h1.395v-0.207h-1.395v-1.1295h1.6245v-0.2475h-2.034m2.8845 0v3.15h0.4095v-3.15h-0.4095m1.2915 2.3535q9e-3 0.1935 0.10125 0.351 0.09225 0.1575 0.252 0.26775 0.15975 0.11025 0.37575 0.171 0.216 0.06075 0.4725 0.06075 0.261 0 0.47025-0.063 0.20925-0.063 0.35775-0.18 0.1485-0.117 0.2295-0.2835 0.081-0.1665 0.081-0.369 0-0.279-0.1395-0.45675-0.1395-0.17775-0.34875-0.297-0.20925-0.11925-0.4545-0.20025-0.24525-0.081-0.4545-0.171-0.20925-0.09-0.34875-0.207t-0.1395-0.3105q0-0.108 0.04725-0.2025 0.04725-0.0945 0.1395-0.16425 0.09225-0.06975 0.22725-0.1125t0.3105-0.04275q0.2925 0 0.49725 0.12375 0.20475 0.12375 0.24075 0.38925h0.306q-0.027-0.1665-0.1215-0.29925-0.0945-0.13275-0.2385-0.225-0.144-0.09225-0.32625-0.1395-0.18225-0.04725-0.38025-0.04725-0.207-2.6e-30 -0.39375 0.054-0.18675 0.054-0.3285 0.1575-0.14175 0.1035-0.225 0.261-0.08325 0.1575-0.08325 0.36 0 0.2655 0.135 0.4275 0.135 0.162 0.33975 0.27 0.20475 0.108 0.44325 0.1845 0.2385 0.0765 0.44325 0.17325 0.20475 0.09675 0.33975 0.23625 0.135 0.1395 0.135 0.3735 0 0.2925-0.21375 0.4275-0.21375 0.135-0.56925 0.135-0.2835 0-0.4545-0.07425-0.171-0.07425-0.261-0.17775-0.09-0.1035-0.1215-0.21375-0.0315-0.11025-0.036-0.18675h-0.306m3.1815-2.3535v3.15h2.034v-0.2475h-1.6245v-1.3185h1.395v-0.207h-1.395v-1.1295h1.6245v-0.2475h-2.034m5.2425 0v2.4075h-0.018l-2.4975-2.4615-0.0225-6.26e-29v3.204h0.207v-2.4075h0.018l2.4975 2.4615h0.0225v-3.204h-0.207m1.2824 3.15h1.1295q0.3015 0 0.5085-0.07875 0.207-0.07875 0.333-0.20475 0.126-0.126 0.18225-0.28575 0.05625-0.15975 0.05625-0.32175 0-0.2565-0.11025-0.4095-0.11025-0.153-0.26325-0.234-0.153-0.081-0.315-0.108-0.162-0.027-0.261-0.0315v-0.018q0.1575 0 0.297-0.06075 0.1395-0.06075 0.24525-0.1575 0.10575-0.09675 0.16875-0.225 0.063-0.12825 0.063-0.27225 0-0.126-0.054-0.2565-0.054-0.1305-0.16425-0.2385-0.11025-0.108-0.2835-0.17775-0.17325-0.06975-0.40725-0.06975h-1.125v3.15m0.4095-0.198v-1.377h0.495q0.2205 0 0.3825 0.0585 0.162 0.0585 0.26775 0.1575 0.10575 0.099 0.1575 0.2295 0.05175 0.1305 0.05175 0.2745 0 0.1575-0.05625 0.279-0.05625 0.1215-0.15075 0.207-0.0945 0.0855-0.22275 0.12825-0.12825 0.04275-0.27225 0.04275h-0.6525m0-1.575v-1.179h0.549q0.1755 0 0.29925 0.0495 0.12375 0.0495 0.2025 0.1305 0.07875 0.081 0.11475 0.1845 0.036 0.1035 0.036 0.207 0 0.1305-0.05175 0.243-0.05175 0.1125-0.144 0.1935-0.09225 0.081-0.2115 0.126-0.11925 0.045-0.25425 0.045h-0.54m2.5605-1.377v3.15h0.4095v-1.3905h0.198q0.126 0 0.20925 0.0225 0.08325 0.0225 0.15075 0.0765 0.0675 0.054 0.126 0.1395 0.0585 0.0855 0.1395 0.2115l0.3555 0.5265q0.0675 0.1035 0.13275 0.189 0.06525 0.0855 0.14175 0.14625 0.0765 0.06075 0.17325 0.09675 0.09675 0.036 0.23175 0.036 0.099 0 0.162-9e-3 0.063-9e-3 0.126-0.045v-0.1665q-0.0225 0.0045-0.045 0.00675-0.0225 0.00225-0.045 0.00225-0.0945 0-0.1665-0.027-0.072-0.027-0.135-0.07875-0.063-0.05175-0.1215-0.126-0.0585-0.07425-0.1215-0.16875-0.189-0.2745-0.2925-0.43875-0.1035-0.16425-0.16425-0.25425-0.06075-0.09-0.099-0.1305-0.03825-0.0405-0.09225-0.0675l-0.045-0.0225v-0.018q0.216-0.0135 0.37125-0.0945 0.15525-0.081 0.25425-0.2025 0.099-0.1215 0.144-0.26325 0.045-0.14175 0.045-0.27675 0-0.1215-0.04725-0.2655-0.04725-0.144-0.162-0.26775-0.11475-0.12375-0.31275-0.207-0.198-0.08325-0.4995-0.08325h-1.0215m0.4095 0.198h0.4545q0.171 0 0.30825 0.0495 0.13725 0.0495 0.23625 0.13725 0.099 0.08775 0.15075 0.20925 0.05175 0.1215 0.05175 0.2655 0 0.1215-0.04725 0.24525-0.04725 0.12375-0.14175 0.225-0.0945 0.10125-0.23175 0.16425-0.13725 0.063-0.31725 0.063h-0.4635v-1.359m2.8171-0.198v3.15h2.034v-0.2475h-1.6245v-1.3185h1.395v-0.207h-1.395v-1.1295h1.6245v-0.2475h-2.034m2.2995 0 1.116 3.15h0.27l0.8595-2.4615h0.0225l0.8325 2.4615h0.2655l1.116-3.15h-0.207l-0.9315 2.628h-0.018l-0.8775-2.628h-0.1935l-0.8955 2.6145h-0.018l-0.927-2.6145h-0.414" fill="#fff"/>
<path d="m2.088 4.3032-0.4455 1.5728h-0.1755l-0.396-1.341-0.405 1.341-0.171 0.00225-0.4365-1.575h0.16875l0.36 1.3792 0.40275-1.3792h0.1755l0.3915 1.3792 0.36225-1.3792h0.16875m1.4063 0v1.5728h-0.1575v-0.73575h-0.85275v0.73575h-0.1575v-1.5728h0.1575v0.7065h0.85275v-0.7065h0.1575m0.51529 0.12825v0.58725h0.59625v0.1305h-0.59625v0.59625h0.66375v0.1305h-0.82125v-1.575h0.82125v0.1305h-0.66375m1.809 1.4445-0.38925-0.657h-0.29025v0.657h-0.1575v-1.5728h0.4725q0.26325 0 0.39938 0.126 0.13613 0.126 0.13613 0.33075 0 0.171-0.097875 0.29138-0.097875 0.12038-0.28913 0.15638l0.405 0.66825h-0.189m-0.6795-0.78525h0.31725q0.1845 0 0.27788-0.09t0.093375-0.24075q0-0.15525-0.09-0.23962t-0.2835-0.084375h-0.315v0.65475m1.3184-0.65925v0.58725h0.59625v0.1305h-0.59625v0.59625h0.66375v0.1305h-0.82125v-1.575h0.82125v0.1305h-0.66375m2.4592 0.65025q-0.13275 0.12375-0.39825 0.12375h-0.31725v0.6705h-0.1575v-1.5728h0.47475q0.26325 0 0.39712 0.12375 0.13388 0.12375 0.13388 0.3285 0 0.2025-0.13275 0.32625m-0.02925-0.32625q0-0.1575-0.08775-0.2385t-0.28125-0.081h-0.31725v0.6345h0.31725q0.369 0 0.369-0.315m1.2601 1.1205-0.38925-0.657h-0.29025v0.657h-0.1575v-1.5728h0.4725q0.26325 0 0.39938 0.126 0.13612 0.126 0.13612 0.33075 0 0.171-0.097875 0.29138-0.097875 0.12038-0.28912 0.15638l0.405 0.66825h-0.189m-0.6795-0.78525h0.31725q0.1845 0 0.27788-0.09t0.093375-0.24075q0-0.15525-0.09-0.23962t-0.2835-0.084375h-0.315v0.65475m1.3184-0.65925v0.58725h0.59625v0.1305h-0.59625v0.59625h0.66375v0.1305h-0.82125v-1.575h0.82125v0.1305h-0.66375m1.0012 0.24188q0.10125-0.18338 0.27675-0.28575 0.1755-0.10238 0.3915-0.10238 0.26325 0 0.45113 0.12487 0.18788 0.12488 0.27338 0.35213h-0.1845q-0.0675-0.15975-0.20588-0.24975-0.13837-0.09-0.33412-0.09-0.17325 0-0.31162 0.081-0.13838 0.081-0.21712 0.23288-0.07875 0.15188-0.07875 0.35213t0.07875 0.351q0.07875 0.15075 0.21712 0.23175t0.31162 0.081q0.19575 0 0.33412-0.088875 0.13838-0.088875 0.20588-0.24638h0.1845q-0.0855 0.225-0.2745 0.34875t-0.45 0.12375q-0.216 0-0.3915-0.10238-0.1755-0.10238-0.27675-0.28462-0.10125-0.18225-0.10125-0.414t0.10125-0.41512m1.8607-0.37012v1.5728h-0.1575v-1.5728h0.1575m0.55913 1.5345q-0.11813-0.054-0.18562-0.15075-0.0675-0.09675-0.072-0.216h0.1665q0.01125 0.11475 0.10125 0.20138t0.26325 0.086625q0.15975 0 0.25312-0.082125t0.093375-0.20812q0-0.10125-0.05175-0.16312t-0.12825-0.09225q-0.0765-0.030375-0.2115-0.066375-0.1575-0.04275-0.24975-0.08325-0.09225-0.0405-0.1575-0.126-0.06525-0.0855-0.06525-0.23175 0-0.1215 0.063-0.21712 0.063-0.095625 0.17775-0.14963 0.11475-0.054 0.26325-0.054 0.21825 0 0.35213 0.10688 0.13388 0.10687 0.15413 0.27562h-0.171q-0.01575-0.09675-0.10575-0.17212-0.09-0.075375-0.243-0.075375-0.14175 0-0.23625 0.075375t-0.0945 0.20588q0 0.099 0.05175 0.15975 0.05175 0.06075 0.12938 0.09225 0.077625 0.0315 0.21037 0.0675 0.153 0.04275 0.2475 0.084375 0.0945 0.041625 0.15975 0.12712 0.06525 0.0855 0.06525 0.2295 0 0.11025-0.0585 0.20925-0.0585 0.099-0.17325 0.15975-0.11475 0.06075-0.2745 0.06075-0.15525 0-0.27338-0.054m1.2387-1.5345v1.5728h-0.1575v-1.5728h0.1575m0.66601 1.4861q-0.17775-0.10238-0.28012-0.28575-0.10238-0.18338-0.10238-0.41512t0.10238-0.41512q0.10237-0.18338 0.28012-0.28575 0.17775-0.10238 0.396-0.10238 0.2205 0 0.39825 0.10238 0.17775 0.10238 0.279 0.28575 0.10125 0.18338 0.10125 0.41512t-0.10125 0.41512q-0.10125 0.18338-0.279 0.28575-0.17775 0.10238-0.39825 0.10238-0.21825 0-0.396-0.10238m0.711-0.11588q0.1395-0.081 0.2205-0.23288 0.081-0.15187 0.081-0.35212t-0.081-0.351q-0.081-0.15075-0.2205-0.23175-0.1395-0.081-0.315-0.081-0.1755 0-0.315 0.081-0.1395 0.081-0.2205 0.23175-0.081 0.15075-0.081 0.351t0.081 0.35212q0.081 0.15188 0.2205 0.23288 0.1395 0.081 0.315 0.081 0.1755 0 0.315-0.081m1.9351 0.2025h-0.1575l-0.87075-1.323v1.323h-0.1575v-1.5728h0.1575l0.87075 1.3208v-1.3208h0.1575v1.5728m2.5064-1.5525v1.5525h-0.1575v-1.2398l-0.5535 1.2398h-0.11475l-0.5535-1.2353v1.2353h-0.1575v-1.5525h0.1665l0.60075 1.3455 0.60075-1.3455h0.16875m0.51295 0.108v0.58725h0.59625v0.1305h-0.59625v0.59625h0.66375v0.1305h-0.82125v-1.575h0.82125v0.1305h-0.66375m1.1295 0v0.58725h0.59625v0.1305h-0.59625v0.59625h0.66375v0.1305h-0.82125v-1.575h0.82125v0.1305h-0.66375m1.8922-0.12825v0.1305h-0.4365v1.4423h-0.1575v-1.4423h-0.43875v-0.1305h1.0328m0.45117 1.5345q-0.11812-0.054-0.18562-0.15075t-0.072-0.216h0.1665q0.01125 0.11475 0.10125 0.20138 0.09 0.086625 0.26325 0.086625 0.15975 0 0.25313-0.082125 0.093375-0.082125 0.093375-0.20812 0-0.10125-0.05175-0.16312-0.05175-0.061875-0.12825-0.09225t-0.2115-0.066375q-0.1575-0.04275-0.24975-0.08325-0.09225-0.0405-0.1575-0.126-0.06525-0.0855-0.06525-0.23175 0-0.1215 0.063-0.21712 0.063-0.095625 0.17775-0.14963 0.11475-0.054 0.26325-0.054 0.21825 0 0.35213 0.10688 0.13388 0.10687 0.15413 0.27562h-0.171q-0.01575-0.09675-0.10575-0.17212t-0.243-0.075375q-0.14175 0-0.23625 0.075375-0.0945 0.075375-0.0945 0.20588 0 0.099 0.05175 0.15975 0.05175 0.06075 0.12937 0.09225 0.077625 0.0315 0.21038 0.0675 0.153 0.04275 0.2475 0.084375 0.0945 0.041625 0.15975 0.12712 0.06525 0.0855 0.06525 0.2295 0 0.11025-0.0585 0.20925-0.0585 0.099-0.17325 0.15975-0.11475 0.06075-0.2745 0.06075-0.15525 0-0.27338-0.054m2.5684-0.756q-0.13275 0.12375-0.39825 0.12375h-0.31725v0.6705h-0.1575v-1.5728h0.47475q0.26325 0 0.39712 0.12375 0.13388 0.12375 0.13388 0.3285 0 0.2025-0.13275 0.32625m-0.02925-0.32625q0-0.1575-0.08775-0.2385-0.08775-0.081-0.28125-0.081h-0.31725v0.6345h0.31725q0.369 0 0.369-0.315m1.3343 0.747h-0.7155l-0.13725 0.3735h-0.1665l0.57375-1.5525h0.17775l0.5715 1.5525h-0.1665l-0.13725-0.3735m-0.04725-0.1305-0.3105-0.8505-0.3105 0.8505h0.621m0.80432 0.46575q-0.11812-0.054-0.18562-0.15075t-0.072-0.216h0.1665q0.01125 0.11475 0.10125 0.20138t0.26325 0.086625q0.15975 0 0.25313-0.082125 0.093375-0.082125 0.093375-0.20812 0-0.10125-0.05175-0.16312-0.05175-0.061875-0.12825-0.09225-0.0765-0.030375-0.2115-0.066375-0.1575-0.04275-0.24975-0.08325-0.09225-0.0405-0.1575-0.126t-0.06525-0.23175q0-0.1215 0.063-0.21712t0.17775-0.14963q0.11475-0.054 0.26325-0.054 0.21825 0 0.35213 0.10688 0.13388 0.10687 0.15412 0.27562h-0.171q-0.01575-0.09675-0.10575-0.17212-0.09-0.075375-0.243-0.075375-0.14175 0-0.23625 0.075375t-0.0945 0.20588q0 0.099 0.05175 0.15975 0.05175 0.06075 0.12937 0.09225 0.077625 0.0315 0.21038 0.0675 0.153 0.04275 0.2475 0.084375 0.0945 0.041625 0.15975 0.12712 0.06525 0.0855 0.06525 0.2295 0 0.11025-0.0585 0.20925-0.0585 0.099-0.17325 0.15975t-0.2745 0.06075q-0.15525 0-0.27338-0.054m1.2848 0q-0.11812-0.054-0.18562-0.15075t-0.072-0.216h0.1665q0.01125 0.11475 0.10125 0.20138t0.26325 0.086625q0.15975 0 0.25313-0.082125 0.093375-0.082125 0.093375-0.20812 0-0.10125-0.05175-0.16312-0.05175-0.061875-0.12825-0.09225-0.0765-0.030375-0.2115-0.066375-0.1575-0.04275-0.24975-0.08325-0.09225-0.0405-0.1575-0.126t-0.06525-0.23175q0-0.1215 0.063-0.21712t0.17775-0.14963q0.11475-0.054 0.26325-0.054 0.21825 0 0.35213 0.10688 0.13388 0.10687 0.15412 0.27562h-0.171q-0.01575-0.09675-0.10575-0.17212-0.09-0.075375-0.243-0.075375-0.14175 0-0.23625 0.075375t-0.0945 0.20588q0 0.099 0.05175 0.15975 0.05175 0.06075 0.12938 0.09225 0.077625 0.0315 0.21038 0.0675 0.153 0.04275 0.2475 0.084375 0.0945 0.041625 0.15975 0.12712 0.06525 0.0855 0.06525 0.2295 0 0.11025-0.0585 0.20925-0.0585 0.099-0.17325 0.15975t-0.2745 0.06075q-0.15525 0-0.27338-0.054m1.2387-1.5345v1.5728h-0.1575v-1.5728h0.1575m0.66601 1.4861q-0.17775-0.10238-0.28012-0.28575-0.10238-0.18338-0.10238-0.41512t0.10238-0.41512q0.10238-0.18338 0.28012-0.28575 0.17775-0.10238 0.396-0.10238 0.2205 0 0.39825 0.10238t0.279 0.28575 0.10125 0.41512-0.10125 0.41512-0.279 0.28575-0.39825 0.10238q-0.21825 0-0.396-0.10238m0.711-0.11588q0.1395-0.081 0.2205-0.23288 0.081-0.15187 0.081-0.35212t-0.081-0.351q-0.081-0.15075-0.2205-0.23175-0.1395-0.081-0.315-0.081-0.1755 0-0.315 0.081t-0.2205 0.23175q-0.081 0.15075-0.081 0.351t0.081 0.35212q0.081 0.15188 0.2205 0.23288t0.315 0.081q0.1755 0 0.315-0.081m1.9351 0.2025h-0.1575l-0.87075-1.323v1.323h-0.1575v-1.5728h0.1575l0.87075 1.3208v-1.3208h0.1575v1.5728m1.1272-1.5728v1.5728h-0.1575v-1.5728h0.1575m1.5413 1.5728h-0.1575l-0.87075-1.323v1.323h-0.1575v-1.5728h0.1575l0.87075 1.3208v-1.3208h0.1575v1.5728m1.1272-1.4445v0.58725h0.59625v0.1305h-0.59625v0.59625h0.66375v0.1305h-0.82125v-1.575h0.82125v0.1305h-0.66375m2.2185-0.12825-0.59625 1.5728h-0.18l-0.59625-1.5728h0.171l0.51525 1.4018 0.51975-1.4018h0.1665m0.39149 0.12825v0.58725h0.59625v0.1305h-0.59625v0.59625h0.66375v0.1305h-0.82125v-1.575h0.82125v0.1305h-0.66375m1.809 1.4445-0.38925-0.657h-0.29025v0.657h-0.1575v-1.5728h0.4725q0.26325 0 0.39938 0.126t0.13612 0.33075q0 0.171-0.097875 0.29138t-0.28912 0.15638l0.405 0.66825h-0.189m-0.6795-0.78525h0.31725q0.1845 0 0.27788-0.09t0.093375-0.24075q0-0.15525-0.09-0.23962t-0.2835-0.084375h-0.315v0.65475m2.2004-0.7875-0.504 0.96075v0.612h-0.1575v-0.612l-0.5085-0.96075h0.17775l0.4095 0.81675 0.40725-0.81675h0.1755m1.7145 0.7785q-0.13275 0.12375-0.39825 0.12375h-0.31725v0.6705h-0.1575v-1.5728h0.47475q0.26325 0 0.39713 0.12375 0.13387 0.12375 0.13387 0.3285 0 0.2025-0.13275 0.32625m-0.02925-0.32625q0-0.1575-0.08775-0.2385t-0.28125-0.081h-0.31725v0.6345h0.31725q0.369 0 0.369-0.315m0.73356 1.0339q-0.17775-0.10238-0.28012-0.28575-0.10238-0.18338-0.10238-0.41512t0.10238-0.41512q0.10238-0.18338 0.28012-0.28575 0.17775-0.10238 0.396-0.10238 0.2205 0 0.39825 0.10238t0.279 0.28575 0.10125 0.41512-0.10125 0.41512-0.279 0.28575-0.39825 0.10238q-0.21825 0-0.396-0.10238m0.711-0.11588q0.1395-0.081 0.2205-0.23288 0.081-0.15187 0.081-0.35212t-0.081-0.351q-0.081-0.15075-0.2205-0.23175t-0.315-0.081-0.315 0.081-0.2205 0.23175q-0.081 0.15075-0.081 0.351t0.081 0.35212q0.081 0.15188 0.2205 0.23288t0.315 0.081 0.315-0.081m0.90006-1.3702v0.99q0 0.234 0.11137 0.3465 0.11138 0.1125 0.30488 0.1125t0.30262-0.11138 0.10912-0.34762v-0.99h0.1575v0.98775q0 0.29925-0.15862 0.45-0.15863 0.15075-0.41288 0.15075-0.25425 0-0.41288-0.15075-0.15862-0.15075-0.15862-0.45v-0.98775h0.1575m2.1713 1.5728-0.38925-0.657h-0.29025v0.657h-0.1575v-1.5728h0.4725q0.26325 0 0.39938 0.126t0.13612 0.33075q0 0.171-0.097875 0.29138t-0.28912 0.15638l0.405 0.66825h-0.189m-0.6795-0.78525h0.31725q0.1845 0 0.27788-0.09 0.093375-0.09 0.093375-0.24075 0-0.15525-0.09-0.23962-0.09-0.084375-0.2835-0.084375h-0.315v0.65475" fill="#fff"/>
<g clip-path="url(#a)">
<g clip-path="url(#b)">
<path d="m-10.638 2.1494c-0.0049513-0.050182 0.031716-0.094877 0.081898-0.099828 0.050182-0.0049513 0.094877 0.031716 0.099828 0.081898l0.010661 0.10395c0.071721 0.69565 0.11 1.0661-0.29149 1.716-0.034398 0.054394-0.071601 0.10696-0.11146 0.1575-0.086332 0.089315-0.13291 0.20973-0.12915 0.33389 0.0010896 0.093249 0.031056 0.18387 0.085774 0.25938 0.064265 0.083607 0.14595 0.15223 0.23939 0.20111 0.042497 0.025355 0.057076 0.079938 0.032882 0.12311-0.024194 0.043168-0.078362 0.059221-0.12217 0.036206-0.11662-0.062134-0.21829-0.14896-0.29791-0.25442-0.076274-0.10528-0.1182-0.23152-0.12006-0.36151-0.0084348-0.16613 0.051699-0.32845 0.16634-0.44898 0.036183-0.045918 0.070026-0.093631 0.1014-0.14296 0.36878-0.59691 0.3328-0.94606 0.2652-1.6017-0.0021807-0.021322-0.004846-0.047006-0.010782-0.10455m1.1294-0.01793c0.0049513-0.050182 0.049646-0.086849 0.099828-0.081898 0.050182 0.0049513 0.086849 0.049646 0.081898 0.099828-0.0059364 0.05791-0.0082382 0.080202-0.010782 0.10455-0.067602 0.65567-0.10358 1.0047 0.26508 1.6017 0.031415 0.04933 0.0653 0.097043 0.10152 0.14296 0.11471 0.12049 0.17482 0.28285 0.16622 0.44898-0.0017602 0.12999-0.043651 0.25625-0.11994 0.36151-0.079657 0.10547-0.18136 0.1923-0.29803 0.25442-0.043993 0.024623-0.099617 0.00892-0.12424-0.035073-0.024623-0.043993-0.00892-0.099617 0.035073-0.12424 0.093441-0.048878 0.17513-0.1175 0.23939-0.20111 0.054668-0.07554 0.084629-0.16614 0.085774-0.25938 0.00376-0.12416-0.042815-0.24457-0.12915-0.33389-0.039857-0.050532-0.07706-0.1031-0.11146-0.1575-0.40149-0.64985-0.36345-1.0203-0.29161-1.716zm-0.94497-1.0867c0.044127-0.024054 0.099398-0.0077817 0.12345 0.036345 0.024054 0.044127 0.0077817 0.099398-0.036345 0.12345-0.42766 0.23321-0.8025 0.17203-1.2236 0.10358-0.45019-0.073417-0.95648-0.15592-1.6355 0.14296-0.045693 0.018273-0.097649-0.0029357-0.1175-0.047965-0.019853-0.045029-4.6732e-4 -0.097692 0.043843-0.1191 0.72823-0.32032 1.2629-0.23334 1.7383-0.1558 0.38829 0.06421 0.73429 0.12054 1.107-0.082503zm0.85508 0.1598c-0.044127-0.024054-0.060399-0.079325-0.036345-0.12345 0.024054-0.044127 0.079325-0.060399 0.12345-0.036345 0.37266 0.20305 0.71866 0.14671 1.107 0.083473 0.47539-0.077536 1.01-0.16452 1.7381 0.1558 0.046134 0.020307 0.067071 0.074168 0.046764 0.1203-0.020307 0.046134-0.074168 0.067071-0.1203 0.046764-0.67844-0.29888-1.1852-0.21637-1.6355-0.14296-0.42112 0.069419-0.79596 0.1306-1.2234-0.10261zm-3.3574 1.1164c0.31882-0.25514 0.71521-0.39375 1.1235-0.39289 0.40317 0.025064 0.78752 0.17941 1.096 0.44014 0.019134 0.01486 0.031581 0.036713 0.034603 0.060751 0.0030218 0.024038-0.0036293 0.048292-0.01849 0.067426-0.00839 0.01069-0.019017 0.019415-0.031136 0.025563-0.3334 0.19521-0.71413 0.2948-1.1004 0.28785-0.38855-0.01762-0.76653-0.13211-1.0996-0.33304-0.027621-0.015787-0.045039-0.044808-0.045978-0.076609-9.3968e-4 -0.031801 0.014734-0.0618 0.041375-0.07919zm3.7557 0c0.31881-0.25515 0.71521-0.39377 1.1235-0.39289 0.40318 0.025005 0.78755 0.17936 1.096 0.44014 0.019134 0.01486 0.031581 0.036713 0.034603 0.060751 0.0030218 0.024038-0.0036293 0.048292-0.01849 0.067426-0.0083467 0.010684-0.018933 0.01941-0.031014 0.025563-0.3334 0.19519-0.71413 0.29479-1.1004 0.28785-0.38859-0.017636-0.7666-0.13212-1.0997-0.33304-0.027621-0.015787-0.045039-0.044808-0.045978-0.076609-9.3968e-4 -0.031801 0.014734-0.0618 0.041375-0.07919zm0.24969-0.31499c-0.028782 0.016408-0.064198 0.015922-0.092519-0.0012704-0.028321-0.017192-0.045095-0.048387-0.04382-0.081493 0.0012752-0.033106 0.020399-0.062919 0.049958-0.077881 0.27326-0.1564 0.57876-0.24804 0.893-0.26786 0.35143-0.0097261 0.69799 0.083917 0.9967 0.26932 0.030046 0.015478 0.04909 0.046282 0.049508 0.080078 4.1735e-4 0.033796-0.01786 0.06506-0.047515 0.081276-0.029655 0.016215-0.06584 0.014731-0.094067-0.0038581-0.26875-0.16761-0.58072-0.25282-0.89736-0.24509-0.2867 0.01947-0.56515 0.1043-0.81401 0.24799zm-3.8316 0c-0.044167 0.022357-0.098104 0.0054102-0.12155-0.038189-0.023444-0.043599-0.0078381-0.09794 0.035167-0.12246 0.27328-0.15637 0.57877-0.24801 0.893-0.26786 0.35143-0.0097261 0.69799 0.083917 0.9967 0.26932 0.040553 0.026707 0.053125 0.080473 0.028618 0.12239-0.024507 0.041919-0.077526 0.05734-0.12069 0.035103-0.26875-0.16761-0.58072-0.25282-0.89736-0.24509-0.2867 0.019487-0.56514 0.10432-0.81401 0.24799zm4.654 0.14683c-0.095312-0.0023634-0.19056 0.0066656-0.28373 0.026895 0.012582 0.058257 0.040717 0.11201 0.081413 0.15556 0.051162 0.056196 0.12335 0.088646 0.19934 0.089611 0.075991 9.6453e-4 0.14898-0.029643 0.20155-0.084522 0.039904-0.040737 0.068398-0.091249 0.082625-0.14647-0.091908-0.02415-0.18631-0.037526-0.28131-0.039858zm0.46788 0.038162c-0.016589 0.10463-0.065323 0.2015-0.13944 0.27719-0.08717 0.090544-0.20788 0.14104-0.33356 0.13952-0.12568-0.0015142-0.24514-0.0549-0.3301-0.14752-0.068764-0.073611-0.11432-0.16585-0.13096-0.2652-0.13416 0.04948-0.26224 0.11411-0.38174 0.19263 0.27348 0.14492 0.57589 0.22692 0.88512 0.24 0.30608 0.0060126 0.609-0.062772 0.88246-0.20038-0.13949-0.098053-0.29141-0.17709-0.45177-0.23503zm-4.2143-0.038162c-0.095311-0.0023576-0.19056 0.0066714-0.28373 0.026895 0.012593 0.058227 0.04068 0.11197 0.081292 0.15556 0.051184 0.056202 0.12339 0.088655 0.1994 0.089619 0.07601 9.6448e-4 0.14902-0.029645 0.20161-0.084531 0.03988-0.040775 0.068405-0.091268 0.082746-0.14647-0.091949-0.024149-0.18639-0.037525-0.28143-0.039858zm0.46752 0.041433c-0.01719 0.1034-0.065742 0.19903-0.13908 0.27392-0.087149 0.090537-0.20784 0.14103-0.3335 0.13951-0.12566-0.0015142-0.2451-0.054898-0.33004-0.14751-0.069621-0.074385-0.11544-0.16787-0.13157-0.26847-0.13754 0.049759-0.26876 0.11551-0.39095 0.1959 0.27353 0.14491 0.57598 0.22691 0.88525 0.24 0.30608 0.0060126 0.609-0.062772 0.88246-0.20038-0.13691-0.096081-0.28572-0.17399-0.44268-0.23176zm0.94352-3.4164c0.072309-0.41605 0.077218-0.84102 0.014538-1.2586-0.066664-0.4263-0.19827-0.83986-0.39023-1.2263-0.10992 0.02213-0.21843 0.047451-0.32553 0.075961 0.17524 0.36915 0.30149 0.75961 0.37557 1.1615 0.07388 0.40797 0.089218 0.8244 0.045553 1.2367 0.094013 0.0055729 0.18734 0.0093286 0.27998 0.011267zm0.58794-0.0033922c0.077884-0.4259 0.084639-0.86177 0.01999-1.2899-0.070075-0.4446-0.21086-0.87512-0.417-1.2752-0.086582 0.0080767-0.17224 0.018173-0.25696 0.030288-0.025684 0.0036345-0.051287 0.0076729-0.076809 0.012115 0.18744 0.39046 0.31655 0.80632 0.3832 1.2343 0.064446 0.42964 0.061176 0.86672-0.009692 1.2953 0.091105 0 0.18205-0.0011711 0.27283-0.0035134 0.027986-6.0575e-4 0.056214-0.0014538 0.084321-0.0025442zm1.7148-0.19784c0.090207-0.37753 0.10617-0.769 0.047006-1.1526-0.061953-0.37535-0.18954-0.73685-0.3769-1.0679-0.11824-0.032307-0.23737-0.059929-0.35739-0.082867 0.17382 0.34592 0.29494 0.71588 0.35933 1.0976 0.068212 0.41964 0.061732 0.84803-0.019142 1.2654 0.11404-0.017769 0.2297-0.037355 0.34697-0.058758zm1.439 0.22922c0.08825-0.15557 0.15331-0.32319 0.19311-0.49756 0.04689-0.21216 0.056687-0.43084 0.028955-0.64634-0.11553-0.15202-0.24346-0.29422-0.38247-0.42512 0.054821 0.18236 0.083376 0.3716 0.084805 0.56202 1.8644e-4 0.275-0.056788 0.54705-0.16731 0.79887 0.089666 0.058815 0.17128 0.12907 0.24279 0.20898zm0.82952 0.060575c-0.0081745 0.077336-0.020509 0.15418-0.036951 0.23019-0.057889 0.26166-0.16232 0.51078-0.30833 0.7355-0.0024184 0.0037018-0.0050477 0.0072614-0.0078748 0.010661 0.060575 0.24775 0.10698 0.51828 0.15035 0.80456 0.02423-0.10395 0.04846-0.2068 0.073538-0.30821 0.13327-0.54857 0.25611-1.0551 0.13436-1.4557zm-0.23479-0.52555c-0.0025335-0.019279-7.2219e-5 -0.038886 0.0071479-0.056941-0.043937-0.090944-0.09054-0.17854-0.13981-0.26278-0.0061018 0.11341-0.021704 0.22611-0.046643 0.33692-0.052125 0.22806-0.14222 0.44573-0.26653 0.64391 0.10311 0.16782 0.18453 0.34803 0.2423 0.53633 0.080993-0.15468 0.14097-0.31949 0.17833-0.49005 0.049059-0.23214 0.057543-0.47103 0.025078-0.70606zm-3.1777 0.39653c0.079974-0.42691 0.087469-0.86424 0.022171-1.2936-0.069752-0.4382-0.20905-0.86244-0.41264-1.2567-0.11122-0.0019384-0.22179-3.2307e-4 -0.33171 0.004846 0.19477 0.3973 0.32868 0.82163 0.39725 1.2588 0.065513 0.43542 0.061137 0.8785-0.012963 1.3125 0.1121-0.0060575 0.22469-0.014336 0.33777-0.024836zm-0.13157-2.5394c0.18527 0.38302 0.31312 0.79123 0.37944 1.2115 0.065862 0.43229 0.061771 0.87235-0.012115 1.3033 0.10613-0.012115 0.21322-0.025805 0.32129-0.04107 0.090491-0.41578 0.10208-0.84487 0.034164-1.2649-0.070707-0.41344-0.2107-0.81197-0.41409-1.1788-0.10298-0.012519-0.20592-0.022211-0.30881-0.029076zm-2.3691 0.38756c0.18843 0.32093 0.33018 0.66706 0.421 1.028 0.08959 0.36277 0.1195 0.73771 0.088561 1.1101 0.10964 0.012115 0.21807 0.021444 0.32517 0.029682 0.042578-0.39396 0.028421-0.792-0.042039-1.1819-0.073234-0.39418-0.19902-0.77675-0.37399-1.1375-0.14296 0.044583-0.28252 0.095143-0.4187 0.15168zm-1.9041 3.1951c3.7513e-4 -0.1026-0.031822-0.20266-0.091953-0.28579-0.064505-0.089631-0.1431-0.16822-0.23273-0.23273-0.0051898 0.46005 0.041095 0.91924 0.13799 1.369 0.042157-0.28753 0.10454-0.57173 0.18669-0.85048zm0.28131-0.6146c0.011932-0.14133-0.020962-0.28283-0.094013-0.4044-0.079279-0.12897-0.18172-0.24217-0.30215-0.33389-0.050007 0.11271-0.093055 0.22839-0.1289 0.34637-0.022652 0.075515-0.040457 0.1524-0.053306 0.23019 0.15352 0.093951 0.28716 0.21705 0.39338 0.36236 0.013932 0.020232 0.026532 0.040707 0.038284 0.061302 0.042094-0.090953 0.091144-0.17852 0.14671-0.26193zm0.36345-0.3809c0.0090048-0.17227-0.025186-0.34405-0.099464-0.49975-0.080556-0.16331-0.19026-0.31055-0.32371-0.43445-0.086372 0.11692-0.16439 0.23979-0.23346 0.36769 0.15902 0.11549 0.29372 0.26118 0.3964 0.42875 0.048753 0.082915 0.084542 0.1728 0.10613 0.26653 0.048269-0.046606 0.099721-0.089799 0.15398-0.12927zm0.023019-1.4053c-0.0034505-0.0043907-0.0066073-0.0090044-0.0094497-0.013811-0.10444 0.09594-0.20292 0.19818-0.29488 0.30615 0.16043 0.14621 0.29195 0.32129 0.38768 0.5161 0.069025 0.14483 0.10985 0.30148 0.1203 0.46158 0.074832-0.036117 0.15216-0.066806 0.2314-0.091832 5.296e-4 -0.19392-0.030948-0.38659-0.093165-0.57025-0.077183-0.22148-0.19297-0.42755-0.34201-0.60866zm1.0455 1.2491c0.0076195-0.28796-0.033883-0.57512-0.12273-0.84914-0.096789-0.29023-0.24133-0.56227-0.42766-0.80492-0.068571 0.044826-0.13541 0.091469-0.2005 0.13993-0.045795 0.034003-0.090661 0.068894-0.1346 0.10467 0.0064742 0.0052025 0.012364 0.011093 0.017567 0.017567 0.16581 0.20165 0.29464 0.43105 0.38053 0.67759 0.070645 0.20808 0.10618 0.42647 0.10516 0.64622 0.12979 0.024311 0.25716 0.046764 0.38211 0.06736zm-0.35546-1.7738c0.19552 0.25823 0.34739 0.54676 0.44959 0.85411 0.10007 0.30807 0.14518 0.63133 0.13327 0.95503 0.083351 0.012115 0.16573 0.023342 0.24715 0.03368 0.027878-0.34551-2.6827e-4 -0.69325-0.083351-1.0298-0.088026-0.34792-0.22604-0.68124-0.40973-0.98956-0.11598 0.054275-0.22833 0.11287-0.33704 0.17579zm4.8591-0.076446c0.095864 0.24411 0.15703 0.50046 0.18173 0.76155 0.027115 0.29707 8.1459e-4 0.5966-0.077657 0.8844 0.0058662 5.1429e-4 0.011693 0.0014046 0.017446 0.0026653 0.069223 0.016753 0.13709 0.038662 0.20305 0.065542 0.093857-0.21864 0.14229-0.45408 0.14235-0.69201-0.0048551-0.27826-0.070432-0.5521-0.19214-0.80238-0.0067856-0.014413-0.01042-0.030108-0.010661-0.046037-0.085936-0.062433-0.17401-0.12058-0.26423-0.17446zm-0.32141-0.16549c-0.0012115-0.0025442-0.0023019-0.0049672-0.0032711-0.0075113-0.12018-0.056537-0.2427-0.1071-0.36757-0.15168 0.14378 0.2962 0.24349 0.61182 0.29597 0.93686 0.059036 0.37896 0.049393 0.76545-0.02847 1.141 0.091347-0.018173 0.18391-0.037193 0.27768-0.057062 0.0956-0.29459 0.13059-0.60549 0.10286-0.91396-0.0337-0.33041-0.12769-0.65185-0.27731-0.94836zm1.8335 4.8589c-0.0033415 0.0021293-0.0068223 0.0040316-0.010419 0.0056941 2.2808e-4 0.0040351 2.2808e-4 0.0080799 0 0.012115-0.02423 0.6593 0.01369 1.3205-0.030288 1.9763 0.0091083 0.0016519 0.017979 0.0044188 0.026411 0.0082382 0.052943 0.023503 0.14756-0.12612 0.24557-0.34649 0.12681-0.29822 0.21213-0.61242 0.25357-0.93383 0.040222-0.31317 0.030893-0.59897-0.060575-0.74641-0.064815-0.1037-0.19687-0.11824-0.42439 0.023624zm-7.9905-0.016234c-0.21141-0.12454-0.33571-0.10734-0.39774-0.0079959-0.091832 0.14744-0.10116 0.43323-0.060575 0.74641 0.041462 0.32138 0.12674 0.63558 0.25345 0.93383 0.098132 0.22037 0.19275 0.36999 0.24569 0.34649 0.0029076-0.0013327 0.0059364-0.0026653 0.0089651-0.0037557-0.053185-0.657-0.028834-1.3199-0.053548-1.9808-4.9696e-4 -0.011513 7.6957e-4 -0.023034 0.0037557-0.034164zm3.3689 3.2557c-0.0060324 0.047617-0.04793 0.082415-0.095846 0.079604-0.047915-0.002811-0.085457-0.04227-0.08588-0.090265 0.006865-0.067443 0.036824-0.13044 0.084805-0.17833 0.037099-0.039003 0.083126-0.068398 0.13411-0.085653 0.057418-0.019402 0.11974-0.01859 0.17664 0.0023019 0.070081 0.028035 0.12888 0.078526 0.16719 0.14356 0.042285 0.077795 0.10328 0.14383 0.17749 0.19214 0.03658 0.017865 0.078143 0.022777 0.11788 0.013932 0.07584-0.012115 0.14114-0.093286 0.21965-0.19105 0.01999-0.024957 0.040707-0.050762 0.059364-0.07269 0.017054-0.020592 0.036867-0.038734 0.058879-0.053912 0.053359-0.036918 0.11793-0.054057 0.18257-0.04846 0.062944 0.0056607 0.1226 0.030625 0.17082 0.071479 0.022679 0.019043 0.042651 0.041095 0.059364 0.065542 0.019811 0.026736 0.023469 0.062146 0.0095426 0.092368-0.013926 0.030221-0.043221 0.050446-0.076417 0.052757-0.033195 0.0023105-0.06501-0.013661-0.082989-0.041662-0.0075222-0.010858-0.016489-0.02064-0.026653-0.029076-0.019308-0.016651-0.043311-0.026896-0.068692-0.029318-0.0226-0.0022517-0.045267 0.0035866-0.063967 0.016476-0.0084762 0.0058684-0.0161 0.012881-0.022655 0.020838-0.021928 0.026411-0.03998 0.04846-0.057183 0.070146-0.10213 0.12733-0.1873 0.23346-0.33341 0.25672-0.078323 0.016079-0.15979 0.0047887-0.23079-0.031984-0.10288-0.062507-0.18789-0.15052-0.24678-0.25551-0.017192-0.031278-0.044056-0.056144-0.076567-0.070873-0.0185-0.0065407-0.038683-0.0065407-0.057183 0-0.022545 0.0078582-0.042866 0.021031-0.059243 0.038405-0.01784 0.016386-0.029802 0.03818-0.034043 0.062029zm-3.0099-0.61787c0.2175 0.29352 0.41676 0.60012 0.59667 0.91808 0.17352 0.30616 0.36499 0.6018 0.5734 0.88537 0.23346-0.019384 0.3935-0.1512 0.56359-0.29076 0.36478-0.30057 0.76979-0.63422 1.9065-0.24557 1.1374-0.38926 1.531-0.071358 1.888 0.21722 0.16573 0.13399 0.32238 0.26047 0.55535 0.27865 0.17518-0.21734 0.38162-0.54263 0.58806-0.86768 0.18943-0.31265 0.39543-0.61495 0.61714-0.9056 0.15495-0.85944 0.07269-1.7373 0.1048-2.6017 0.02509-0.032462 0.02372-0.078136-0.0032711-0.10904-0.0078748-0.054881-0.020717-0.14538-0.033437-0.23612-0.15544-1.1004-0.28628-2.0258-0.88767-2.3745-0.0071393-0.0018583-0.014078-0.0044148-0.020717-0.0076325-0.0099956-0.0048504-0.019254-0.011091-0.027501-0.018536-0.066509-0.033852-0.13645-0.060495-0.20862-0.079475-0.7682 0.18067-1.5505 0.29526-2.3382 0.34249-0.020941 0.0088992-0.044082 0.011264-0.06639 0.0067844-0.0041191-9.692e-4 -0.0081171-0.0018173-0.012115-0.0031499-0.045795 0.0018173-0.09159 0.0035134-0.13738 0.0047249-0.83981 0.017477-1.6789-0.059-2.5018-0.228-0.014717 0.0054156-0.030375 0.0078055-0.046037 0.0070267-0.013098-7.1346e-4 -0.025972-0.0037063-0.038041-0.008844-0.50883 0.16513-0.77694 0.54106-0.94497 1.0585l-0.0013327 0.012842c-0.0019551 0.018365-0.0084046 0.035966-0.018778 0.051247-0.12258 0.46832-0.21013 0.94511-0.26193 1.4264l-0.0025442 0.01999c-3.6119e-4 0.0050939-0.00109 0.010155-0.0021807 0.015144-0.011823 0.041932-0.0028114 0.086991 0.02423 0.12115 0.031984 0.86659-0.025684 1.7482 0.13508 2.6109zm0.13448 3.0741-0.83788 0.49672c0.096072 0.23697 0.5161 1.2292 0.89082 2.0092 0.13112 0.28893 0.28127 0.56884 0.44947 0.83788l1.3289-1.2899-1.7248-1.4381c-0.022557-0.018545-0.037023-0.045132-0.040343-0.074144h-3e-15zm7.0364-0.20365 2.923 1.7224c2.684-3.3726 2.3186-8.2431-0.8385-11.177-3.1571-2.9344-8.0413-2.943-11.209-0.019856-3.1675 2.9232-3.5501 7.7923-0.8781 11.174l2.9368-1.7364-0.33849-2.7865c-0.0016926-0.013897-7.8884e-4 -0.027988 0.0026653-0.041555-0.023503-0.13327-0.042281-0.2658-0.057183-0.39907-0.17615 0.02423-0.34879-0.17446-0.4846-0.47939-0.13561-0.31877-0.22692-0.65461-0.27138-0.99816-0.046279-0.3603-0.028834-0.69989 0.093286-0.89542 0.10904-0.17543 0.28167-0.24799 0.53415-0.15277-0.014417-0.079838-0.027138-0.14768-0.039374-0.21444-0.15883-0.85738-0.29827-1.6102-0.10358-2.2521 0.22586-0.71593 0.67783-1.3393 1.2881-1.7765 0.45032-0.32888 0.95432-0.57709 1.4895-0.73357 0.0039134-0.0026255 0.0079569-0.0050516 0.012115-0.007269 0.016754-0.0085048 0.035374-0.01267 0.054154-0.012115 0.25092-0.071795 0.50646-0.12636 0.76482-0.16331 0.72472-0.10652 1.4637-0.061134 2.1699 0.13327 0.0058274 0.0011569 0.011543 0.0028189 0.017082 0.0049672 0.32542 0.092639 0.63859 0.22385 0.93286 0.39083 0.44195 0.25037 0.82779 0.58883 1.1336 0.9944 0.0060936 0.006355 0.011383 0.013435 0.01575 0.02108 0.27867 0.38053 0.48943 0.80639 0.62296 1.2588 0.13969 0.46037 0.0098132 0.99573-0.13084 1.575-0.063846 0.2635-0.13024 0.53645-0.173 0.81352 0.29452-0.14126 0.49042-0.07269 0.61048 0.11994 0.12212 0.19554 0.13957 0.53512 0.093286 0.89554-0.04447 0.34351-0.13578 0.67931-0.27138 0.99804-0.13957 0.31342-0.3179 0.51513-0.49938 0.47673-0.014053 0.14066-0.032711 0.28095-0.057425 0.42088 7.2533e-4 0.0074533 7.2533e-4 0.014959 0 0.022413zm-6.5604 0.83182c-0.029561-0.1793-0.056698-0.40816-0.081171-0.65688-0.078627-0.79959-0.13169-1.8256-0.13884-2.0285-0.11643-0.19445-0.23273-0.38841-0.34395-0.55875l0.37557 3.0867zm0.54094 0.45092c-0.02847-0.15156-0.05585-0.33583-0.081171-0.53415-0.088076-0.69056-0.15665-1.5737-0.17022-1.7952-0.084805-0.11849-0.17385-0.25551-0.26423-0.40113 0.02423 0.40949 0.066512 1.0549 0.12018 1.6004 0.043614 0.44462 0.093407 0.81558 0.14344 0.91808l0.0014538 0.0031499zm1.495-2.2667c0.095179-0.016984 0.19155-0.026423 0.28822-0.028228 0.0010904-0.0027865 0.0021807-0.0054518 0.0033922-0.0082382l0.02847-0.060575c0.061027-0.14544 0.13716-0.28407 0.22716-0.41361-0.082019-0.018173-0.15871-0.031257-0.23019-0.03998-0.13327 0.058879-0.25066 0.36357-0.31705 0.55051zm-0.51937 0.13327c0.083594-0.025563 0.16961-0.051125 0.25599-0.074023v-0.0014538c0.007269-0.01684 0.016719-0.043614 0.028713-0.078021 0.059543-0.18949 0.14253-0.37081 0.24703-0.53972-0.077152 0.0050355-0.15361 0.017738-0.22825 0.03792-0.12648 0.12478-0.2377 0.44874-0.30348 0.65482zm-0.53742 0.13799c0.092391-0.012642 0.18368-0.032326 0.27307-0.058879 0.0059364-0.017688 0.014659-0.045553 0.024957-0.078384 0.048252-0.16111 0.10553-0.31938 0.17155-0.47406-0.063967 0.045553-0.12309 0.094134-0.181 0.14199l-0.010298 0.0083594c-0.0032445 0.0035856-0.006769 0.0069075-0.01054 0.0099343-0.061791 0.060941-0.11308 0.13168-0.1518 0.20935-0.042852 0.078314-0.081553 0.15883-0.11594 0.24121zm-0.39253-0.12769c0.037673 0.053106 0.091456 0.092657 0.15338 0.11279 0.017324-0.045431 0.040343-0.1008 0.067117-0.15955-0.071238 0.024714-0.14533 0.040265-0.22049 0.046279zm0.17773 0.36345c-0.075679-0.0090232-0.14831-0.035166-0.21238-0.076446 0.03162 0.35909 0.079353 0.85011 0.13327 1.2744 0.050399 0.39422 0.10492 0.72254 0.15386 0.81171l0.20268 0.16888c-0.02847-0.13847-0.056456-0.30288-0.082867-0.48-0.09692-0.65348-0.17785-1.4894-0.19457-1.6996zm0.50701-0.062635c-0.093408 0.026827-0.18858 0.047069-0.28482 0.060575 0.006421 0.097647 0.095224 0.97574 0.19857 1.6679 0.025678 0.26022 0.080207 0.51678 0.16258 0.76494l0.0029076 0.0052095 0.2446 0.20402c-0.041797-0.18391-0.080807-0.41288-0.11594-0.66039-0.10722-0.75477-0.18451-1.7031-0.20789-2.0437zm0.49999-0.14792c-0.08214 0.022655-0.16295 0.047491-0.2423 0.071721l-0.040343 0.012115c0.0087228 0.16198 0.095951 1.2302 0.21601 2.0735 0.065906 0.46328 0.13981 0.84902 0.21165 0.9537 0.0029016 0.0043566 0.0055315 0.0088882 0.0078748 0.013569l0.038284 0.031863h0.19105c-0.085254-0.31719-0.14561-0.64055-0.18051-0.96714-0.10492-0.80953-0.18003-1.8288-0.20172-2.1904zm1.1554-0.17506-0.012963-0.53912c-0.030288-0.0099343-0.059969-0.019344-0.089045-0.028228-0.10764 0.13199-0.19479 0.27942-0.25853 0.43735 0.12678 0.02161 0.2488 0.065235 0.36054 0.1289zm2.4096 0.13557c0.076186-0.02514 0.13964-0.078866 0.177-0.14986-0.087306-9.9521e-4 -0.17404-0.014208-0.25769-0.039253 0.032711 0.068571 0.060333 0.13508 0.080686 0.18803zm-0.51222-0.043978c0.089436 0.026542 0.18077 0.046225 0.27319 0.058879-0.034353-0.082752-0.073054-0.16363-0.11594-0.2423-0.038799-0.077653-0.090127-0.14838-0.15192-0.20935-0.0032711-0.0027865-0.0061787-0.0054518-0.0090863-0.0083594-0.015023-0.012115-0.030045-0.02423-0.04531-0.036345-0.047491-0.038526-0.095709-0.077415-0.14696-0.11461 0.065858 0.1544 0.12297 0.31239 0.17106 0.47321 0.010419 0.032347 0.019021 0.060091 0.024957 0.077779zm-0.52095-0.15313c0.086865 0.022897 0.17228 0.04846 0.25599 0.074023-0.066875-0.20935-0.18039-0.53997-0.30978-0.661-0.073859-0.019836-0.1495-0.032295-0.22582-0.037193 0.10626 0.17037 0.1904 0.35357 0.25042 0.54518 0.012115 0.034407 0.021322 0.061302 0.028713 0.078142zm-0.55196-0.087107c0.096789 0.001751 0.19329 0.01119 0.28858 0.028228-0.067844-0.19081-0.18899-0.5052-0.32553-0.55438-0.070025 0.0087228-0.14477 0.021686-0.22461 0.039374 0.091368 0.13066 0.16853 0.27069 0.23019 0.41773 0.010298 0.022534 0.020232 0.044341 0.027986 0.060575 0.0018173 0.0019384 0.0029076 0.0046037 0.003998 0.0073902zm-0.59739 0.14599c0.11039-0.06262 0.23076-0.1057 0.35582-0.12733-0.064295-0.15969-0.15276-0.30855-0.26229-0.44135-0.034649 0.010298-0.070025 0.021686-0.10637 0.033801zm-0.27198 1.1932c-0.082117-0.0052979-0.16389-0.015004-0.24497-0.029076 2.627e-4 0.013306-0.001829 0.026554-0.0061787 0.039132-0.0043614 0.012842 0.014659 0.8403 0.087349 1.4874 0.034649 0.30772 0.07899 0.56383 0.13423 0.6427h0.04422zm3.4018-2.2278c8.5382e-4 0.0034311 0.0015011 0.0069103 0.0019384 0.010419 0.0031499 0.020596-0.0527 1.1812-0.13944 2.0642-0.02423 0.24642-0.051125 0.47321-0.080444 0.65191l0.18282-0.15241 0.37641-3.0983c-0.1094 0.1604-0.2251 0.3414-0.34116 0.52422zm-0.51259 0.77694c0.0030963 0.0078193 0.0053701 0.01594 0.0067844 0.02423 0.0029076 0.018657-0.072084 1.0586-0.17276 1.8471-0.025078 0.19602-0.052095 0.37847-0.080202 0.52906l0.25308-0.21092c0.077117-0.2993 0.12451-0.60547 0.1415-0.91408 0.057062-0.58152 0.10189-1.2756 0.12442-1.6772-0.093286 0.14393-0.185 0.28107-0.27271 0.40222zm-0.47079 0.64634c-0.016719 0.21286-0.097526 1.0461-0.19469 1.697-0.026047 0.17434-0.053427 0.3374-0.081776 0.47479l0.20596-0.17143c0.076807-0.26224 0.12701-0.53154 0.14986-0.80383 0.053791-0.42136 0.1014-0.90863 0.13327-1.2667-0.064809 0.038753-0.13736 0.062744-0.2125 0.070267zm-0.50653-0.067117c-0.022776 0.33765-0.10055 1.2894-0.20814 2.0449-0.034891 0.24497-0.07269 0.47249-0.11473 0.65494l0.24824-0.20692c0.080585-0.24752 0.13448-0.50294 0.16077-0.76191 0.10383-0.69577 0.19311-1.5794 0.19844-1.6692-0.096104-0.014165-0.19114-0.034808-0.28446-0.061787zm-0.49987-0.14805c-0.021686 0.35885-0.09692 1.3817-0.20232 2.1928-0.035025 0.32657-0.095378 0.64993-0.18051 0.96714h0.18572l0.04846-0.040101 0.0035134-0.0053306c0.071721-0.10467 0.14538-0.49042 0.21165-0.9537 0.12115-0.84926 0.20838-1.9263 0.21613-2.0769l-0.029197-0.0089651c-0.082867-0.025442-0.16743-0.051247-0.25333-0.074992zm-0.67469 0.93467c0.0040362 0.0067892 0.0073651 0.013975 0.0099343 0.021444 0.0016409 0.52967-0.023956 1.0591-0.076688 1.5861-0.018422 0.2093-0.057502 0.41626-0.11667 0.61787h0.23406c0.067723-0.14138 0.13557-0.53306 0.1959-0.99658 0.11497-0.88343 0.1976-2.0007 0.20898-2.2161-0.32856-0.065785-0.66257-0.062029-0.94788 0.17361-0.054441 0.033424-0.12304 0.033424-0.17749 0-0.2887-0.2383-0.62695-0.23951-0.95915-0.17131 0.012115 0.22086 0.094376 1.3327 0.20898 2.2138 0.060575 0.46401 0.12806 0.8552 0.19578 0.99658h0.2131c-0.059119-0.20161-0.098157-0.40857-0.11655-0.61787-0.052931-0.5271-0.078528-1.0566-0.076688-1.5863 0.0014377-0.0041421 0.0031372-0.0081886 0.0050883-0.012115-0.017082-0.0044826-0.034043-0.0090863-0.051125-0.013811-0.046017-0.017329-0.071127-0.066984-0.057811-0.11432 0.013317-0.047334 0.060633-0.076613 0.10894-0.067407 0.18003 0.052443 0.36599 0.081834 0.55341 0.087471 0.20701 0.0039058 0.41331-0.025338 0.61108-0.086622 0.049881-0.015155 0.1026 0.012996 0.11776 0.062877 0.015155 0.049881-0.012996 0.1026-0.062877 0.11776zm-0.42778 2.2252c0.055245-0.078869 0.099707-0.33486 0.13436-0.6421 0.07269-0.64731 0.091711-1.475 0.087228-1.488-0.0045918-0.013851-0.0065638-0.028436-0.0058152-0.043008-0.09828 0.018979-0.1978 0.030842-0.29779 0.035497l0.0016961 0.2423c0.014247 0.01957 0.021924 0.043153 0.021928 0.06736v0.48715c-8.196e-5 0.021471-0.0062577 0.042477-0.017809 0.060575l0.0089651 1.2802zm4.1283-1.7613-0.78857-0.46594-0.061423 0.50532c-0.003752 0.032094-0.020975 0.061078-0.04737 0.079717l-1.7459 1.4554 1.3053 1.2666c0.16827-0.269 0.31842-0.54891 0.44947-0.83788 0.37169-0.77367 0.78784-1.7562 0.88852-2.0032zm-10.848 1.225c-0.018975-0.0072221-0.035696-0.019345-0.04846-0.035134-2.788-3.4682-2.4194-8.5019 0.8441-11.527 3.2635-3.0251 8.3107-3.0114 11.558 0.031226 3.2471 3.0427 3.5885 8.0783 0.7818 11.531-0.023936 0.029433-0.060958 0.045014-0.098738 0.041555-0.028985 0.0036707-0.058262-0.0040614-0.081655-0.021565l-1.9132-1.1307c-0.13981 0.34164-0.52894 1.2621-0.87725 1.9869-0.22897 0.47673-0.44402 0.87592-0.56941 0.99077-0.045793 0.041954-0.11671 0.03964-0.15968-0.0052095l-1.4066-1.3668-0.29076 0.2423c-0.020388 0.017033-0.046124 0.026341-0.07269 0.02629h-2.2149c-0.030375 6.6542e-5 -0.059514-0.012017-0.080928-0.033559l-0.3099-0.25841-1.4311 1.3889c-0.042975 0.044928-0.11399 0.047243-0.1598 0.0052095-0.12466-0.11485-0.33922-0.51416-0.56941-0.99077-0.35012-0.72872-0.74156-1.6552-0.87955-1.9924l-1.8833 1.1168c-0.040442 0.030247-0.095974 0.030247-0.13642 2.3e-14z" fill="#fff"/>
</g>
</g>
</g>
<defs>
<clipPath id="a">
<path d="m-18.443-4.9157h16.943v15.707h-16.943z"/>
</clipPath>
<clipPath id="b">
<path d="m-18.443-4.9157h16.943v15.707h-16.943z"/>
</clipPath>
</defs>
</svg>
